<svg width="100" height="37" viewBox="0 0 100 37" fill="none" xmlns="http://www.w3.org/2000/svg">
<path d="M42.6113 24.126H46.8887C46.9863 24.9854 47.4355 25.6689 48.2363 26.1768C49.0371 26.6846 50.0625 26.9385 51.3125 26.9385C52.4648 26.9385 53.4072 26.6895 54.1396 26.1914C54.8721 25.6836 55.2383 25.0293 55.2383 24.2285C55.2383 23.5547 54.9551 23.0078 54.3887 22.5879C53.8223 22.168 52.8896 21.8213 51.5908 21.5479L48.8369 20.9619C45.0088 20.1611 43.0947 18.1494 43.0947 14.9268C43.0947 12.9346 43.832 11.3379 45.3066 10.1367C46.7812 8.92578 48.7393 8.32031 51.1807 8.32031C53.5049 8.32031 55.4141 8.91113 56.9082 10.0928C58.4121 11.2744 59.1982 12.8076 59.2666 14.6924H55.1064C54.999 13.8525 54.5889 13.1787 53.876 12.6709C53.1631 12.1631 52.2744 11.9092 51.21 11.9092C50.0967 11.9092 49.2031 12.1484 48.5293 12.627C47.8652 13.1055 47.5332 13.7451 47.5332 14.5459C47.5332 15.2002 47.8018 15.7275 48.3389 16.1279C48.8857 16.5283 49.7793 16.8604 51.0195 17.124L53.5684 17.666C55.6875 18.1152 57.2305 18.8184 58.1973 19.7754C59.1641 20.7324 59.6475 22.0312 59.6475 23.6719C59.6475 25.8008 58.8809 27.4805 57.3477 28.7109C55.8242 29.9316 53.7344 30.542 51.0781 30.542C48.5586 30.542 46.5371 29.9658 45.0137 28.8135C43.4902 27.6611 42.6895 26.0986 42.6113 24.126ZM60.8586 30V7.67578H65.1213V30H60.8586ZM73.8471 16.7578C72.8607 16.7578 72.0453 17.0752 71.4008 17.71C70.766 18.3447 70.4096 19.1846 70.3314 20.2295H77.2162C77.1674 19.1553 76.8402 18.3105 76.2348 17.6953C75.6391 17.0703 74.8432 16.7578 73.8471 16.7578ZM77.3041 25.4004H81.2738C80.9516 26.9336 80.1313 28.1445 78.8129 29.0332C77.5043 29.9121 75.8637 30.3516 73.891 30.3516C71.4301 30.3516 69.5111 29.6191 68.1342 28.1543C66.7572 26.6797 66.0688 24.6289 66.0688 22.002C66.0688 19.375 66.7621 17.2998 68.1488 15.7764C69.5355 14.2529 71.4301 13.4912 73.8324 13.4912C76.2152 13.4912 78.0707 14.209 79.3988 15.6445C80.7367 17.0801 81.4057 19.082 81.4057 21.6504V22.9541H70.3168V23.1738C70.3461 24.375 70.6879 25.3271 71.3422 26.0303C72.0063 26.7236 72.8949 27.0703 74.0082 27.0703C74.848 27.0703 75.5512 26.9287 76.1176 26.6455C76.684 26.3525 77.0795 25.9375 77.3041 25.4004ZM91.5377 13.5791C93.5885 13.5791 95.1998 14.3164 96.3717 15.791C97.5436 17.2656 98.1295 19.3066 98.1295 21.9141C98.1295 24.5117 97.5484 26.5527 96.3863 28.0371C95.2242 29.5117 93.6324 30.249 91.6109 30.249C90.4586 30.249 89.4576 30.0098 88.608 29.5312C87.7584 29.0527 87.1334 28.3838 86.733 27.5244H86.4693V35.3613H82.2066V13.8428H86.3375V16.4941H86.6012C87.0406 15.5859 87.6949 14.873 88.5641 14.3555C89.4332 13.8379 90.4244 13.5791 91.5377 13.5791ZM90.0875 26.6895C91.2398 26.6895 92.1383 26.2695 92.7828 25.4297C93.4273 24.5801 93.7496 23.4082 93.7496 21.9141C93.7496 20.4297 93.4225 19.2676 92.7682 18.4277C92.1236 17.5781 91.235 17.1533 90.1021 17.1533C88.9693 17.1533 88.0709 17.583 87.4068 18.4424C86.7525 19.292 86.4254 20.4541 86.4254 21.9287C86.4254 23.4033 86.7525 24.5654 87.4068 25.415C88.0611 26.2646 88.9547 26.6895 90.0875 26.6895Z" fill="white"/>
<rect width="37" height="37" rx="8" fill="#2990FF"/>
<path d="M11.1456 14.8986L15.0324 21.6161C16.9758 15.4901 22.637 12.3638 28.8475 13.6312L24.9607 6.91377C18.5812 6.66029 13.8494 9.53315 11.1456 14.8986Z" fill="white"/>
<path d="M26.4816 22.7568L22.5948 16.0394C20.6513 22.1653 14.9901 25.2917 8.77966 24.0242L12.6665 30.7417C19.0459 30.9951 23.7777 28.1223 26.4816 22.7568Z" fill="white"/>
</svg>
